<svg width="31" height="36" viewBox="0 0 31 36" fill="none" xmlns="http://www.w3.org/2000/svg">
<path fill-rule="evenodd" clip-rule="evenodd" d="M23.5 8C23.5 6.94943 23.2931 5.90914 22.891 4.93853C22.489 3.96793 21.8997 3.08601 21.1569 2.34315C20.414 1.60028 19.5321 1.011 18.5615 0.608964C17.5909 0.206926 16.5506 0 15.5 0C14.4494 0 13.4091 0.206926 12.4385 0.608964C11.4679 1.011 10.586 1.60028 9.84315 2.34315C9.10028 3.08601 8.511 3.96793 8.10896 4.93853C7.70693 5.90914 7.5 6.94943 7.5 8L0.5 8V36H30.5V8H23.5ZM20.5 8C20.5 7.34339 20.3707 6.69321 20.1194 6.08658C19.8681 5.47995 19.4998 4.92876 19.0355 4.46447C18.5712 4.00017 18.02 3.63188 17.4134 3.3806C16.8068 3.12933 16.1566 3 15.5 3C14.8434 3 14.1932 3.12933 13.5866 3.3806C12.98 3.63188 12.4288 4.00017 11.9645 4.46447C11.5002 4.92876 11.1319 5.47996 10.8806 6.08658C10.6293 6.69321 10.5 7.34339 10.5 8H20.5ZM3.5 33V11H27.5V33H3.5Z" fill="black"/>
</svg>
