<svg width="37" height="36" viewBox="0 0 37 36" fill="none" xmlns="http://www.w3.org/2000/svg">
<path fill-rule="evenodd" clip-rule="evenodd" d="M11.4162 18.5332C9.02143 16.6071 7.5 13.7232 7.5 10.5C7.5 4.70101 12.4249 0 18.5 0C24.5751 0 29.5 4.70101 29.5 10.5C29.5 13.7232 27.9786 16.6071 25.5838 18.5332C27.6714 19.4765 29.5911 20.8372 31.2279 22.565C34.6036 26.1282 36.5 30.9609 36.5 36H34.4338C34.0952 32.174 32.4695 28.5715 29.8137 25.8327C26.8131 22.7384 22.7435 21 18.5 21C14.2565 21 10.1869 22.7384 7.18629 25.8327C4.53049 28.5715 2.90476 32.174 2.56621 36H0.5C0.5 30.9609 2.39642 26.1282 5.77208 22.565C7.40893 20.8372 9.32857 19.4765 11.4162 18.5332ZM15.1804 17.3258C12.419 16.1436 10.5 13.5319 10.5 10.5C10.5 6.35786 14.0817 3 18.5 3C22.9183 3 26.5 6.35786 26.5 10.5C26.5 13.5319 24.581 16.1436 21.8196 17.3258C20.7326 17.1105 19.6217 17 18.5 17C17.3783 17 16.2674 17.1105 15.1804 17.3258Z" fill="black"/>
</svg>
