<svg width="24" height="23" viewBox="0 0 24 23" fill="none" xmlns="http://www.w3.org/2000/svg">
<path fill-rule="evenodd" clip-rule="evenodd" d="M14.9699 16.1476C13.454 17.3095 11.5576 18 9.5 18C4.52944 18 0.5 13.9705 0.5 9C0.5 4.02954 4.52944 0 9.5 0C14.4706 0 18.5 4.02954 18.5 9C18.5 10.9677 17.8685 12.7879 16.7972 14.269L22.7991 20.2316C23.3125 20.7416 23.3152 21.5712 22.8052 22.0846C22.2952 22.5979 21.4656 22.6006 20.9523 22.0906L14.9699 16.1476ZM16.5 9C16.5 12.866 13.366 16 9.5 16C5.63401 16 2.5 12.866 2.5 9C2.5 5.13403 5.63401 2 9.5 2C13.366 2 16.5 5.13403 16.5 9Z" fill="black"/>
</svg>
