<svg width="32" height="25" viewBox="0 0 32 25" fill="none" xmlns="http://www.w3.org/2000/svg">
<path d="M31.5 3.15353C30.3929 3.62802 29.1276 3.94436 27.8623 4.10252C29.1276 3.3117 30.2347 2.0464 30.7092 0.622932C29.4439 1.41375 28.1786 1.88824 26.597 2.20457C25.4898 0.939259 23.75 0.148438 22.0102 0.148438C18.5306 0.148438 15.6837 2.99538 15.6837 6.47497C15.6837 6.94946 15.6837 7.42394 15.8418 7.89843C10.6224 7.58211 5.87754 5.0515 2.71428 1.25558C2.23979 2.20456 1.92346 3.3117 1.92346 4.41884C1.92346 6.63313 3.03061 8.53109 4.77041 9.63824C3.66326 9.63824 2.71428 9.32191 1.92346 8.84742C1.92346 11.8525 4.13774 14.5413 6.98468 15.0158C6.51019 15.1739 5.87755 15.174 5.2449 15.174C4.77041 15.174 4.45408 15.1739 3.97959 15.0158C4.77041 17.5464 7.14286 19.4444 9.9898 19.4444C7.77551 21.1842 5.08674 22.1331 2.08163 22.1331C1.60714 22.1331 1.13265 22.1331 0.5 21.975C3.34694 23.7148 6.66837 24.8219 10.3061 24.8219C22.0102 24.8219 28.3367 15.174 28.3367 6.79129V6.00048C29.602 5.52599 30.7092 4.41884 31.5 3.15353Z" fill="white"/>
</svg>
