<svg width="26" height="25" viewBox="0 0 26 25" fill="none" xmlns="http://www.w3.org/2000/svg">
<path d="M13.077 0.222656C6.15966 0.222656 0.5 5.88231 0.5 12.7997C0.5 17.9877 3.64426 22.3896 8.04621 24.2762C8.04621 23.3329 8.0462 22.3896 8.20341 21.4464C8.51784 20.3459 9.77554 14.529 9.77554 14.529C9.77554 14.529 9.30392 13.7429 9.30392 12.4852C9.30392 10.5987 10.4044 9.18378 11.6621 9.18378C12.7626 9.18378 13.3914 9.96984 13.3914 11.0703C13.3914 12.1708 12.6054 13.9002 12.2909 15.4723C11.9765 16.73 12.9198 17.8305 14.3347 17.8305C16.6929 17.8305 18.265 14.8434 18.265 11.0703C18.265 8.2405 16.3785 6.19674 13.077 6.19674C9.30391 6.19674 6.94573 9.02657 6.94573 12.1708C6.94573 13.2713 7.26015 14.0574 7.73179 14.6862C7.889 15.0006 8.0462 15.0006 7.88899 15.3151C7.88899 15.4723 7.73178 16.1011 7.57457 16.2584C7.41736 16.5728 7.26015 16.73 6.94573 16.5728C5.21639 15.7867 4.43032 13.9002 4.43032 11.6992C4.43032 8.08329 7.41735 3.83855 13.3914 3.83855C18.265 3.83855 21.4093 7.29723 21.4093 11.0703C21.4093 15.9439 18.7367 19.717 14.6491 19.717C13.2342 19.717 11.9765 18.931 11.5049 18.1449C11.5049 18.1449 10.7188 20.9747 10.5616 21.6036C10.2472 22.5469 9.77556 23.4901 9.30392 24.2762C10.4044 24.5906 11.6621 24.7478 12.9198 24.7478C19.8371 24.7478 25.4968 19.0882 25.4968 12.1708C25.654 5.88231 19.9944 0.222656 13.077 0.222656Z" fill="white"/>
</svg>
