<svg width="38" height="27" viewBox="0 0 38 27" fill="none" xmlns="http://www.w3.org/2000/svg">
<path fill-rule="evenodd" clip-rule="evenodd" d="M4.3051 25.3535C3.64538 25.1583 3.04344 24.8111 2.55006 24.3411C2.05669 23.8711 1.68636 23.2922 1.47032 22.6532C0.235822 19.3503 -0.129956 5.55869 2.2476 2.83607C3.03889 1.95038 4.15609 1.40509 5.35671 1.31854C11.7349 0.649043 31.4412 0.73831 33.7045 1.54171C34.341 1.74331 34.9226 2.08292 35.4056 2.53511C35.8886 2.98729 36.2605 3.54032 36.4935 4.15275C37.8423 7.56718 37.888 19.9752 36.3106 23.2557C35.8922 24.1097 35.1916 24.8014 34.3217 25.2196C31.9442 26.3801 7.45993 26.3577 4.3051 25.3535ZM14.4326 18.8817L25.8631 13.0794L14.4326 7.23243V18.8817Z" fill="white"/>
</svg>
