<svg width="26" height="26" viewBox="0 0 26 26" fill="none" xmlns="http://www.w3.org/2000/svg">
<path d="M13 3.24439C16.3133 3.24439 16.7651 3.24439 18.1205 3.24439C19.3253 3.24439 19.9277 3.54559 20.3795 3.6962C20.9819 3.9974 21.4337 4.148 21.8855 4.59981C22.3374 5.05162 22.6386 5.50343 22.7892 6.10583C22.9398 6.55764 23.0904 7.16005 23.241 8.36487C23.241 9.72029 23.241 10.0215 23.241 13.4854C23.241 16.9492 23.241 17.2504 23.241 18.6058C23.241 19.8107 22.9398 20.4131 22.7892 20.8649C22.488 21.4673 22.3374 21.9191 21.8855 22.3709C21.4337 22.8227 20.9819 23.1239 20.3795 23.2745C19.9277 23.4251 19.3253 23.5757 18.1205 23.7263C16.7651 23.7263 16.4639 23.7263 13 23.7263C9.53615 23.7263 9.23494 23.7263 7.87952 23.7263C6.6747 23.7263 6.07229 23.4251 5.62048 23.2745C5.01807 22.9733 4.56627 22.8227 4.11446 22.3709C3.66265 21.9191 3.36145 21.4673 3.21084 20.8649C3.06024 20.4131 2.90964 19.8107 2.75904 18.6058C2.75904 17.2504 2.75904 16.9492 2.75904 13.4854C2.75904 10.0215 2.75904 9.72029 2.75904 8.36487C2.75904 7.16005 3.06024 6.55764 3.21084 6.10583C3.51205 5.50343 3.66265 5.05162 4.11446 4.59981C4.56627 4.148 5.01807 3.8468 5.62048 3.6962C6.07229 3.54559 6.6747 3.39499 7.87952 3.24439C9.23494 3.24439 9.68675 3.24439 13 3.24439ZM13 0.985352C9.53615 0.985352 9.23494 0.985352 7.87952 0.985352C6.5241 0.985352 5.62048 1.28656 4.86747 1.58776C4.11446 1.88897 3.36145 2.34077 2.60843 3.09379C1.85542 3.8468 1.55422 4.44921 1.10241 5.35282C0.801206 6.10583 0.650602 7.00945 0.5 8.36487C0.5 9.72029 0.5 10.1721 0.5 13.4854C0.5 16.9492 0.5 17.2504 0.5 18.6058C0.5 19.9613 0.801206 20.8649 1.10241 21.6179C1.40362 22.3709 1.85542 23.1239 2.60843 23.8769C3.36145 24.6299 3.96386 24.9311 4.86747 25.3829C5.62048 25.6842 6.5241 25.8347 7.87952 25.9854C9.23494 25.9854 9.68675 25.9854 13 25.9854C16.3133 25.9854 16.7651 25.9854 18.1205 25.9854C19.4759 25.9854 20.3795 25.6842 21.1325 25.3829C21.8855 25.0817 22.6386 24.6299 23.3916 23.8769C24.1446 23.1239 24.4458 22.5215 24.8976 21.6179C25.1988 20.8649 25.3494 19.9613 25.5 18.6058C25.5 17.2504 25.5 16.7986 25.5 13.4854C25.5 10.1721 25.5 9.72029 25.5 8.36487C25.5 7.00945 25.1988 6.10583 24.8976 5.35282C24.5964 4.59981 24.1446 3.8468 23.3916 3.09379C22.6386 2.34077 22.0361 2.03957 21.1325 1.58776C20.3795 1.28656 19.4759 1.13595 18.1205 0.985352C16.7651 0.985352 16.4639 0.985352 13 0.985352Z" fill="white"/>
<path d="M13 7.00945C9.38554 7.00945 6.5241 9.87089 6.5241 13.4854C6.5241 17.0998 9.38554 19.9613 13 19.9613C16.6145 19.9613 19.4759 17.0998 19.4759 13.4854C19.4759 9.87089 16.6145 7.00945 13 7.00945ZM13 17.7022C10.741 17.7022 8.78313 15.895 8.78313 13.4854C8.78313 11.2263 10.5904 9.26849 13 9.26849C15.259 9.26849 17.2169 11.0757 17.2169 13.4854C17.2169 15.7444 15.259 17.7022 13 17.7022Z" fill="white"/>
<path d="M19.6265 8.36487C20.4583 8.36487 21.1325 7.6906 21.1325 6.85885C21.1325 6.02709 20.4583 5.35282 19.6265 5.35282C18.7948 5.35282 18.1205 6.02709 18.1205 6.85885C18.1205 7.6906 18.7948 8.36487 19.6265 8.36487Z" fill="white"/>
</svg>
